<svg xmlns="http://www.w3.org/2000/svg" id="flag-icons-um" viewBox="0 0 640 480">
  <path fill="#bd3d44" d="M0 0h640v480H0"/>
  <path stroke="#fff" stroke-width="37" d="M0 55.3h640M0 129h640M0 203h640M0 277h640M0 351h640M0 425h640"/>
  <path fill="#192f5d" d="M0 0h364.8v258.5H0"/>
  <g fill="#fff">
    <path d="m30 11 9 27-23-17h28l-23 17z"/>
    <path d="m91 11 9 27-23-17h28l-23 17z"/>
    <path d="m152 11 9 27-23-17h28l-23 17z"/>
    <path d="m213 11 9 27-23-17h28l-23 17z"/>
    <path d="m274 11 9 27-23-17h28l-23 17z"/>
    <path d="m334 11 9 27-23-17h28l-23 17z"/>
    <path d="m61 37 9 27-23-17h28l-23 17z"/>
    <path d="m122 37 9 27-23-17h28l-23 17z"/>
    <path d="m183 37 9 27-23-17h28l-23 17z"/>
    <path d="m243 37 9 27-23-17h28l-23 17z"/>
    <path d="m304 37 9 27-23-17h28l-23 17z"/>
    <path d="m30 63 9 27-23-17h28l-23 17z"/>
    <path d="m91 63 9 27-23-17h28l-23 17z"/>
    <path d="m152 63 9 27-23-17h28l-23 17z"/>
    <path d="m213 63 9 27-23-17h28l-23 17z"/>
    <path d="m274 63 9 27-23-17h28l-23 17z"/>
    <path d="m334 63 9 27-23-17h28l-23 17z"/>
    <path d="m61 89 9 27-23-17h28l-23 17z"/>
    <path d="m122 89 9 27-23-17h28l-23 17z"/>
    <path d="m183 89 9 27-23-17h28l-23 17z"/>
    <path d="m243 89 9 27-23-17h28l-23 17z"/>
    <path d="m304 89 9 27-23-17h28l-23 17z"/>
    <path d="m30 115 9 27-23-17h28l-23 17z"/>
    <path d="m91 115 9 27-23-17h28l-23 17z"/>
    <path d="m152 115 9 27-23-17h28l-23 17z"/>
    <path d="m213 115 9 27-23-17h28l-23 17z"/>
    <path d="m274 115 9 27-23-17h28l-23 17z"/>
    <path d="m334 115 9 27-23-17h28l-23 17z"/>
    <path d="m61 141 9 27-23-17h28l-23 17z"/>
    <path d="m122 141 9 27-23-17h28l-23 17z"/>
    <path d="m183 141 9 27-23-17h28l-23 17z"/>
    <path d="m243 141 9 27-23-17h28l-23 17z"/>
    <path d="m304 141 9 27-23-17h28l-23 17z"/>
    <path d="m30 166 9 27-23-17h28l-23 17z"/>
    <path d="m91 166 9 27-23-17h28l-23 17z"/>
    <path d="m152 166 9 27-23-17h28l-23 17z"/>
    <path d="m213 166 9 27-23-17h28l-23 17z"/>
    <path d="m274 166 9 27-23-17h28l-23 17z"/>
    <path d="m334 166 9 27-23-17h28l-23 17z"/>
    <path d="m61 192 9 27-23-17h28l-23 17z"/>
    <path d="m122 192 9 27-23-17h28l-23 17z"/>
    <path d="m183 192 9 27-23-17h28l-23 17z"/>
    <path d="m243 192 9 27-23-17h28l-23 17z"/>
    <path d="m304 192 9 27-23-17h28l-23 17z"/>
    <path d="m30 218 9 27-23-17h28l-23 17z"/>
    <path d="m91 218 9 27-23-17h28l-23 17z"/>
    <path d="m152 218 9 27-23-17h28l-23 17z"/>
    <path d="m213 218 9 27-23-17h28l-23 17z"/>
    <path d="m274 218 9 27-23-17h28l-23 17z"/>
    <path d="m334 218 9 27-23-17h28l-23 17z"/>
  </g>
</svg>
