<svg xmlns="http://www.w3.org/2000/svg" id="flag-icons-um" viewBox="0 0 512 512">
  <path fill="#bd3d44" d="M0 0h512v512H0"/>
  <path stroke="#fff" stroke-width="40" d="M0 58h512M0 137h512M0 216h512M0 295h512M0 374h512M0 453h512"/>
  <path fill="#192f5d" d="M0 0h390v275H0z"/>
  <g fill="#fff">
    <path d="m33 11 9.3 28.6L18 22h30L23.7 39.6z"/>
    <path d="m98 11 9.3 28.6L83 22h30L88.7 39.6z"/>
    <path d="m163 11 9.3 28.6L148 22h30L153.7 39.6z"/>
    <path d="m228 11 9.3 28.6L213 22h30L218.7 39.6z"/>
    <path d="m293 11 9.3 28.6L278 22h30L283.7 39.6z"/>
    <path d="m359 11 9.3 28.6L344 22h30L349.7 39.6z"/>
    <path d="m66 39 9.3 28.6L51 50h30L56.7 67.6z"/>
    <path d="m131 39 9.3 28.6L116 50h30L121.7 67.6z"/>
    <path d="m196 39 9.3 28.6L181 50h30L186.7 67.6z"/>
    <path d="m261 39 9.3 28.6L246 50h30L251.7 67.6z"/>
    <path d="m326 39 9.3 28.6L311 50h30L316.7 67.6z"/>
    <path d="m33 66 9.3 28.6L18 77h30L23.7 94.6z"/>
    <path d="m98 66 9.3 28.6L83 77h30L88.7 94.6z"/>
    <path d="m163 66 9.3 28.6L148 77h30L153.7 94.6z"/>
    <path d="m228 66 9.3 28.6L213 77h30L218.7 94.6z"/>
    <path d="m293 66 9.3 28.6L278 77h30L283.7 94.6z"/>
    <path d="m359 66 9.3 28.6L344 77h30L349.7 94.6z"/>
    <path d="m66 94 9.3 28.6L51 105h30L56.7 122.6z"/>
    <path d="m131 94 9.3 28.6L116 105h30L121.7 122.6z"/>
    <path d="m196 94 9.3 28.6L181 105h30L186.7 122.6z"/>
    <path d="m261 94 9.3 28.6L246 105h30L251.7 122.6z"/>
    <path d="m326 94 9.3 28.6L311 105h30L316.7 122.6z"/>
    <path d="m33 121 9.3 28.6L18 132h30L23.7 149.6z"/>
    <path d="m98 121 9.3 28.6L83 132h30L88.7 149.6z"/>
    <path d="m163 121 9.3 28.6L148 132h30L153.7 149.6z"/>
    <path d="m228 121 9.3 28.6L213 132h30L218.7 149.6z"/>
    <path d="m293 121 9.3 28.6L278 132h30L283.7 149.6z"/>
    <path d="m359 121 9.3 28.6L344 132h30L349.7 149.6z"/>
    <path d="m66 149 9.3 28.6L51 160h30L56.7 177.6z"/>
    <path d="m131 149 9.3 28.6L116 160h30L121.7 177.6z"/>
    <path d="m196 149 9.3 28.6L181 160h30L186.7 177.6z"/>
    <path d="m261 149 9.3 28.6L246 160h30L251.7 177.6z"/>
    <path d="m326 149 9.3 28.6L311 160h30L316.7 177.6z"/>
    <path d="m33 177 9.3 28.6L18 188h30L23.7 205.6z"/>
    <path d="m98 177 9.3 28.6L83 188h30L88.7 205.6z"/>
    <path d="m163 177 9.3 28.6L148 188h30L153.7 205.6z"/>
    <path d="m228 177 9.3 28.6L213 188h30L218.7 205.6z"/>
    <path d="m293 177 9.3 28.6L278 188h30L283.7 205.6z"/>
    <path d="m359 177 9.3 28.6L344 188h30L349.7 205.6z"/>
    <path d="m66 205 9.3 28.6L51 216h30L56.7 233.6z"/>
    <path d="m131 205 9.3 28.6L116 216h30L121.7 233.6z"/>
    <path d="m196 205 9.3 28.6L181 216h30L186.7 233.6z"/>
    <path d="m261 205 9.3 28.6L246 216h30L251.7 233.6z"/>
    <path d="m326 205 9.3 28.6L311 216h30L316.7 233.6z"/>
    <path d="m33 232 9.3 28.6L18 243h30L23.7 260.6z"/>
    <path d="m98 232 9.3 28.6L83 243h30L88.7 260.6z"/>
    <path d="m163 232 9.3 28.6L148 243h30L153.7 260.6z"/>
    <path d="m228 232 9.3 28.6L213 243h30L218.7 260.6z"/>
    <path d="m293 232 9.3 28.6L278 243h30L283.7 260.6z"/>
    <path d="m359 232 9.3 28.6L344 243h30L349.7 260.6z"/>
  </g>
</svg>
